<?xml version="1.0" encoding="UTF-8" ?>
<!DOCTYPE svg PUBLIC "-//W3C//DTD SVG 1.1//EN" "http://www.w3.org/Graphics/SVG/1.1/DTD/svg11.dtd">
<svg width="1120pt" height="1120pt" viewBox="0 0 1120 1120" version="1.1" xmlns="http://www.w3.org/2000/svg">
<g id="#ffffffff">
</g>
<g id="#000000ff">
<path fill="#353b41" opacity="1.00" d=" M 537.51 0.00 L 582.49 0.00 C 674.86 4.29 766.25 30.79 845.70 78.28 C 925.07 125.51 992.70 192.54 1040.20 271.78 C 1079.73 337.60 1105.86 411.57 1115.22 487.84 C 1117.45 504.37 1118.47 521.04 1120.00 537.64 L 1120.00 582.50 C 1116.31 657.58 1098.62 732.17 1066.01 800.01 C 1038.76 857.47 1001.79 910.55 956.32 955.06 C 938.99 888.59 904.29 826.81 856.76 777.24 C 806.96 724.59 742.77 685.76 673.11 665.83 C 641.08 656.40 607.84 652.23 574.63 649.79 C 643.71 645.34 709.99 608.29 748.99 550.97 C 785.65 498.86 798.71 430.86 784.21 368.86 C 770.00 304.56 726.32 247.55 668.01 216.98 C 614.73 188.27 549.81 182.19 492.05 200.20 C 460.36 210.04 430.74 226.81 406.16 249.14 C 375.99 275.78 353.79 310.97 341.07 349.05 C 331.34 380.45 327.75 413.80 331.41 446.50 C 338.89 512.49 376.51 574.43 431.99 611.00 C 465.43 633.95 505.15 646.62 545.45 649.69 C 474.94 653.17 404.92 673.41 344.94 710.96 C 256.29 765.18 189.88 854.39 163.62 954.96 C 102.67 895.49 57.40 820.67 29.63 740.35 C 12.00 689.48 3.42 635.95 0.00 582.36 L 0.00 537.64 C 1.52 521.03 2.55 504.37 4.78 487.84 C 18.43 376.68 67.62 270.56 142.12 187.12 C 176.99 148.98 216.14 114.48 260.08 87.10 C 342.69 34.09 439.58 4.53 537.51 0.00 Z" />
</g>
</svg>
